<svg xmlns="http://www.w3.org/2000/svg" xml:space="preserve" id="svg60" width="140" height="83" x="0" y="0" version="1.1" viewBox="0 0 210.76 125.293">
  <style id="style2" type="text/css">
    .st0{fill:#2a2e46}.st1{fill:#0bbbef}
  </style>
  <g id="Logo" transform="translate(-36.35 -79.058)">
    <g id="INP">
      <path id="path4" d="M212.15 111.14h-23.66c-7.89 0-14.29 6.4-14.29 14.29v78.92h18.19v-76.29h20.04c12.08 0 16.2 6.25 16.2 14.64 0 8.53-4.12 14.78-16.2 14.78h-12.64v16.77h12.36c24.16 0 34.96-13.36 34.96-31.55s-10.8-31.56-34.96-31.56z" class="st0"/>
      <path id="rect6" d="M36.35 110.9h16.91v93.44H36.35z" class="st0"/>
      <path id="path8" d="M36.37 100.09h16.91V79.67c-9.34 0-16.91 7.57-16.91 16.91z" class="st1"/>
      <path id="path10" d="M132.69 145.12 87.7 112.63v.01c-1.78-1.1-3.87-1.74-6.11-1.74-6.44 0-11.66 5.22-11.66 11.66v81.78h17V133.9l45.75 33.08v-21.86z" class="st0"/>
      <path id="path12" d="m93.79 170.12 44.99 32.49v-.01c1.78 1.1 3.87 1.74 6.11 1.74 6.44 0 11.66-5.22 11.66-11.66V110.9h-17v70.44L93.8 148.26v21.86z" class="st1"/>
    </g>
    <g id="Bordeaux_1_">
      <path id="polygon15" d="m238.28 79.66-3.33 5.64-3.38-5.64h-6.79l6.6 9.67-7.14 10.76h6.72l3.86-6.48 4.02 6.48h6.93l-7.37-10.77 6.48-9.66z" class="st0"/>
      <path id="path17" d="M215.67 91.89c0 1.08-.31 3.58-3.22 3.58s-3.22-2.5-3.22-3.58V79.66h-5.59v12.62c0 4.99 3.53 8.34 8.78 8.34 5.3 0 8.86-3.35 8.86-8.34V79.66h-5.62v12.23z" class="st0"/>
      <path id="path19" d="m187.49 79.66-8.57 20.43h6.12l1.43-3.83h6.94l1.52 3.83h6.22l-8.49-20.43zm4.29 11.92h-3.62l1.83-4.95z" class="st0"/>
      <path id="polygon21" d="M175.8 91.92V87.3h-8.16v-2.9h8.63v-4.82h-14.03v20.48h14.53v-4.87h-9.13v-3.27z" class="st0"/>
      <path id="path23" d="M145.61 79.66h-7.51v20.43h7.73c5.68 0 11.4-3.18 11.4-10.27 0-9.17-8.13-10.16-11.62-10.16zm-2.01 4.93h1.89c2.7 0 5.92.91 5.92 5.23 0 4.37-3.28 5.29-6.03 5.29h-1.78z" class="st0"/>
      <path id="path25" d="M131.81 89.55c.78-.98 1.17-2.19 1.17-3.61 0-1.19-.23-2.21-.69-3.03a5.616 5.616 0 0 0-1.84-1.97 7.49 7.49 0 0 0-2.55-1.04c-.92-.2-1.88-.3-2.85-.3h-7.91v20.47h5.45v-7.8h.97l4.27 7.8h6.52l-5.25-8.6c1.13-.44 2.03-1.08 2.71-1.92zm-9.24-5.32h2.13c.33 0 .68.03 1.04.08.34.05.64.14.91.28.25.13.45.3.6.53.15.22.22.52.22.9 0 .41-.08.75-.25.99-.17.26-.39.45-.67.59-.29.15-.63.25-1 .31-.39.06-.77.09-1.14.09h-1.85v-3.77z" class="st0"/>
      <path id="path27" d="M109.1 81.94c-.99-.92-2.18-1.64-3.54-2.14-2.71-.99-6.13-.99-8.82 0-1.35.5-2.54 1.22-3.52 2.14-.99.92-1.78 2.06-2.33 3.37-.56 1.31-.84 2.8-.84 4.42 0 1.6.28 3.09.84 4.42.56 1.33 1.34 2.49 2.33 3.44.99.95 2.18 1.69 3.52 2.21 1.35.51 2.83.78 4.41.78s3.07-.26 4.42-.78c1.36-.52 2.55-1.26 3.54-2.21.99-.95 1.77-2.11 2.33-3.44s.84-2.82.84-4.42c0-1.62-.28-3.11-.84-4.42-.57-1.31-1.35-2.45-2.34-3.37zm-2.73 7.8c0 .84-.13 1.62-.39 2.32-.26.7-.62 1.3-1.08 1.79-.46.49-1.01.89-1.64 1.17-1.26.56-2.96.56-4.22 0-.63-.28-1.18-.67-1.63-1.17-.45-.49-.81-1.1-1.07-1.8s-.39-1.48-.39-2.32c0-.8.13-1.56.38-2.25.25-.68.61-1.27 1.06-1.76a5.08 5.08 0 0 1 1.65-1.16c.63-.28 1.34-.42 2.11-.42.77 0 1.49.14 2.13.42.64.28 1.19.67 1.64 1.15.45.49.81 1.08 1.07 1.77.25.7.38 1.46.38 2.26z" class="st0"/>
      <path id="path29" d="M82.87 89.29c1.54-.88 2.4-2.34 2.4-4.16 0-3.43-2.65-5.47-7.1-5.47h-8.23v20.43h8.23c4.95 0 7.9-2.29 7.9-6.13 0-2.17-1.22-3.91-3.2-4.67zm-7.48 2.53h2.17c2.55 0 2.89.86 2.89 1.7 0 1.24-.96 1.87-2.86 1.87h-2.2zm2.09-4.38h-2.09v-3.13h1.87c2.56 0 2.56 1.02 2.56 1.45 0 1.39-1.27 1.68-2.34 1.68z" class="st0"/>
    </g>
  </g>
</svg>